<?xml version="1.0" encoding="utf-8"?>
<!-- Generator: Adobe Illustrator 20.1.0, SVG Export Plug-In . SVG Version: 6.00 Build 0)  -->
<svg version="1.1" id="Слой_1" xmlns="http://www.w3.org/2000/svg" xmlns:xlink="http://www.w3.org/1999/xlink" x="0px" y="0px"
	 viewBox="0 0 350 80" style="enable-background:new 0 0 350 80;" xml:space="preserve">
<style type="text/css">
	.st0{fill:#ffffff;}
</style>
<g>
	<path class="st0" d="M1.4,67.6h32.6c2.9,0,5-0.5,6.3-1.4c1.3-0.9,2-2.3,2-4.3s-0.7-3.4-2-4.4c-1.3-0.9-3.4-1.4-6.3-1.4H20.7
		c-7.9,0-13.3-1.2-16.1-3.6c-2.8-2.4-4.2-6.7-4.2-12.9c0-6.3,1.7-10.9,5.1-13.9c3.4-3,8.6-4.4,15.6-4.4h33.2v12.2H27
		c-4.5,0-7.3,0.4-8.7,1.2c-1.3,0.8-2,2.2-2,4.1c0,1.8,0.6,3.1,1.8,4c1.2,0.8,3,1.3,5.6,1.3h14c6.4,0,11.3,1.5,14.7,4.5
		c3.4,3,5.1,7.3,5.1,12.9c0,5.4-1.5,9.8-4.5,13.2c-3,3.4-6.8,5.1-11.5,5.1h-40V67.6z"/>
	<path class="st0" d="M94.5,79.8c-9.7,0-17-2.5-22-7.4c-5-4.9-7.5-12.2-7.5-21.8s2.5-16.9,7.5-21.8c5-5,12.3-7.4,22-7.4h22.6v12.2
		H96.7c-5.6,0-9.4,0.8-11.3,2.4c-1.9,1.6-3,4.5-3.1,8.6h34.9v12.2H82.2c0.1,4.2,1.1,7.1,2.9,8.6c1.8,1.5,5.6,2.3,11.4,2.3h20.6v12.2
		H94.5z"/>
	<path class="st0" d="M214.3,21.4h31.7c8,0,14,1.8,18.1,5.5c4.1,3.7,6.1,9.1,6.1,16.3v36.6h-41.6c-5.8,0-10.3-1.5-13.4-4.4
		c-3.1-2.9-4.7-7.1-4.7-12.5c0-6.6,1.8-11.4,5.4-14.3c3.6-2.9,9.6-4.3,17.9-4.3h20.4v-1.5c0-3.5-1-5.9-3.1-7.3
		c-2-1.4-5.7-2.1-10.9-2.1h-25.8V21.4z M234.9,68.1h19.4V56h-18.2c-3.6,0-6.1,0.5-7.5,1.5c-1.4,1-2.1,2.7-2.1,5.1
		c0,2.1,0.6,3.5,1.7,4.3C229.3,67.7,231.5,68.1,234.9,68.1z"/>
	<path class="st0" d="M299.7,79.8h-16.1V0.2h16.1V79.8z"/>
	<path class="st0" d="M307.1,21.4H318V0.2h15.5v21.2h16.3V33h-16.3v23.6c0,4.3,0.7,7.3,2.2,9c1.5,1.7,4.1,2.5,7.8,2.5h6.4v11.7
		h-14.1c-5.7,0-10.1-1.6-13.1-4.7c-3-3.2-4.6-7.7-4.6-13.6V33h-10.9V21.4z"/>
</g>
</svg>
